<svg xmlns="http://www.w3.org/2000/svg"><symbol id="unicorns-of-the-sea" viewBox="0 0 1920 1080"><path fill="#78a2b3" d="M0 0h1920v1080H0z"/><g fill="none" stroke-linecap="round" stroke-linejoin="round" stroke-width="12.37"><path stroke="#ff00e6" d="M186.8 1080a1315.5 1315.5 0 0 1 155.3-162.6c72.4-64.3 154.6-124.1 244.3-177.9 173.7-104.2 373.5-185.4 593.8-241.2s456.1-84.7 696.8-84.7c14.4 0 28.7.1 43 .3"/><path stroke="#9500ff" d="M267.9 1080a1284.5 1284.5 0 0 1 118-119c69.4-61.7 148.4-119.2 234.8-170.9 168.2-100.9 362.1-179.6 576.1-233.9 216.2-54.8 445.1-82.6 680.2-82.6 14.4 0 28.7.1 43 .3"/><path stroke="#0040ff" d="M351.7 1080q36.8-38.7 78-75.4c66.5-59 142.3-114.2 225.3-163.9 162.7-97.7 350.6-173.9 558.4-226.6 210.8-53.4 434.1-80.5 663.6-80.5 14.4 0 28.7.1 43 .3"/><path stroke="#2bff00" d="M439 1080q16.8-16.1 34.4-31.7c63.7-56.5 136.3-109.3 215.9-157.1 157.3-94.3 339.2-168 540.7-219.1 205.4-52.1 423.1-78.5 647-78.5 14.4 0 28.7.1 43 .3"/><path stroke="#fff700" d="M530.9 1080c57.4-49.4 122.1-95.9 192.6-138.2 151.9-91 327.9-162.3 523.1-211.8 200-50.7 412.1-76.4 630.4-76.4 14.4 0 28.7.1 43 .3"/><path stroke="#ff8000" d="M628.5 1080a1405 1405 0 0 1 129.3-87.6c146.4-87.7 316.5-156.5 505.4-204.5 194.6-49.3 401.1-74.3 613.8-74.3 14.4 0 28.7.1 43 .3"/><path stroke="red" d="M733.8 1080c280.9-188.1 689-306.4 1143.2-306.4 14.4 0 28.7.1 43 .3"/></g><path fill="#78a2b3" stroke="#fff" stroke-linecap="round" stroke-linejoin="round" stroke-width="12" d="M1176.2 333.6c2.2 24.1 4.6 48.6 7.4 73.3 1.1 13.6 2.6 27.4 4.3 41.5.6 4.9 1.2 9.4 1.7 13.6l-14.1 16.1a168.8 168.8 0 0 0-22.6 44.6q-23.4 75.4 42.6 151.8c-1.9 13.4-2.3 46.2 14 66.8a246.9 246.9 0 0 0 24.7 26.6l26.9-32.4q68.4 52.2 198.1 92.5 64.6 20.6 115.6 30.1c7.5 32.3 24.3 53.2 50.5 63 13.6 5.3 25.9 7 37 5.2-1.3-18.2-7.8-34.6-19.5-49.4l-17.1-16.1c12.9-2.5 23.4-7.4 31.4-14.5s11.5-14.3 13.3-22.4q-38.9-26.5-69.9-15.8c-10.3 3.8-18 9.2-23 16.2q-113.6-38.4-161-141.8-23.9-51.6-25.9-114.2t-58.1-98.6q-55.9-36.1-98.3-21.3l-16.3-33.7-17.1-33.2z"/><path fill="#fff" d="M1228.5 568.6a9.6 9.6 0 0 0 .1 8.6 9.8 9.8 0 0 0 5.3 6.9 11.9 11.9 0 0 0 9.3.2 10.7 10.7 0 0 0 6.2-5.6 12.5 12.5 0 0 0 .8-9 12.7 12.7 0 0 0-6.2-6.5 10.4 10.4 0 0 0-8.3-.5 11.7 11.7 0 0 0-7.2 5.9z"/></symbol><symbol id="brachiosaurus" viewBox="0 0 256 256"><path fill="#0056cb" d="M59.1 167a32.5 32.5 0 0 0-7.7.9c0 .3.3.6.8 1a12.3 12.3 0 0 0 2 1l2.6 1 2.8.8 2.4.6 1.5.3h2.1a10.1 10.1 0 0 0 2.5-.5l2.4-.8a5 5 0 0 0 1.7-1.5 28.5 28.5 0 0 0-6.4-2.2 29.9 29.9 0 0 0-6.7-.6z"/><path fill="#0056cb" d="M128 1a127 127 0 1 0 127 127A127.1 127.1 0 0 0 128 1zm82.8 70.1v.3a8.8 8.8 0 0 1-.1 1.4l-.3 2.1a15.5 15.5 0 0 1-.4 2.1 9 9 0 0 1-.2 1.3 6.6 6.6 0 0 0-.9 1.9l-.6 1.9-.6 2c-.2.7-.5 1.3-.7 2s-1.1 2.1-1.7 3a30.1 30.1 0 0 0-1.6 3.1l-20 27.7a.8.8 0 0 1-.2.5l-.3.3-.3.3-.4.5-1.6 2.2-2.1 2.9-2.2 3.2a27.9 27.9 0 0 0-1.9 3.3 13.5 13.5 0 0 0-1.4 3 5.6 5.6 0 0 0-.6 2.3c0 .3-.2.5-.2.7s.2.4.2.7c-.1 0-.2.2-.2.4s.1.4.2.4v10.2a4.4 4.4 0 0 1-.2 1c-.2.3-.2.7-.4 1.1s-.5.8-.6 1.2a5.6 5.6 0 0 0-.4 1.2v1.6c0 .1.1.2-.1.4a3 3 0 0 1-.4.8c-.1.3-.5.6-.7.8s-.5.4-.5.4v.4c0 .1.7.3.8.5s.9.3.9.4v.5a2.7 2.7 0 0 0 0 .9v1.4a19.7 19.7 0 0 1-.7 3.5c-.1 1.2-.5 2.3-.7 3.5s-.5 2.3-.7 3.5a21.6 21.6 0 0 0-.3 3.5q0 3.2.3 6.3a32.2 32.2 0 0 0 1.1 6.2 27.8 27.8 0 0 0 2.1 5.7 22.2 22.2 0 0 0 3.4 5.2 4.8 4.8 0 0 1-1.3.9 7.6 7.6 0 0 1-1.6.6l-1.8.5H169l-1-.3-1.2-.2-1-.2-.7-.2-.7-.3a1.8 1.8 0 0 1-.7-.5 2.4 2.4 0 0 1-.3-.7 26.4 26.4 0 0 0 .1-4 31.1 31.1 0 0 0-.3-4.3c-.1-1.4-.3-2.8-.5-4.3s-.4-2.7-.5-4-.1-.3-.2-.7l-.2-.6c0-1.1 0-2.3.1-3.6s0-2.7-.1-4a25.7 25.7 0 0 0-.6-4 11.7 11.7 0 0 0-1.5-3.4 3.7 3.7 0 0 0-1.4 1.8 17.3 17.3 0 0 0-.8 2.7c-.2 1-.2 1.9-.4 2.9s-.9 1.7-.9 2.3v3.8a17.6 17.6 0 0 0 0 2.3v1.5c0 2.8-.3 5.6-.1 8.3s.2 5.4.5 8.2l.4.3.8.6a2.7 2.7 0 0 1 .8.7.7.7 0 0 1 .4.6c0 .2-.3.5-.8.8l-1.9.9-2 .8-1.3.4h-.2l-4.7-2.6a.3.3 0 0 1-.2-.4v-.6a29.9 29.9 0 0 1 0-3 30.1 30.1 0 0 0 .1-3.1 25.3 25.3 0 0 0-.3-3.8l-.6-3.7-.6-3.7c-.1-1.3-.2-2.6-.2-3.9s0-2.3.1-3.3l.3-2.8.6-2.8c.2-1 .4-2 .6-3.2a.8.8 0 0 0 0-.7 2.3 2.3 0 0 1-.1-.7 5.8 5.8 0 0 0-1.9.2l-1.9.5-1.9.6-1.9.5-1.4.2-1 .2-1-.2h-2.9a44.2 44.2 0 0 1-5.2-.1H121a4.1 4.1 0 0 0-2.4.8 45.1 45.1 0 0 1 0 5.2c0 1.7-.1 3.4-.1 5.1l-.3 5.1c0 1.7-.1 3.5-.1 5.2v1a7.5 7.5 0 0 0 0 1.5v2.6c0 .5.6 1.1 1.1 1.7l1.4 1.7 1.2 1.7a4.1 4.1 0 0 1 .5 1.8v.4a9.4 9.4 0 0 1-4.1.4c.1.5 0 .7-.2.8h-2.7l-2.3-.2a5.1 5.1 0 0 1-1.8-.9 2.2 2.2 0 0 1-.8-1.8 5.1 5.1 0 0 1 .2-1.3l.3-1.3.3-1.3a6.6 6.6 0 0 0 .1-1.4c0-1.3-.1-2.6-.2-3.9s-.4-2.4-.7-3.5-.5-2.7-.8-3.9a18.3 18.3 0 0 1-.7-3.9h-.5c-.2 0-.3.7-.5.9a2.5 2.5 0 0 1-.4.7l-.3.5-1.6 2.3-1.4 2.2a18.9 18.9 0 0 0-1.1 2.5 7.7 7.7 0 0 0-.4 2.7 4.5 4.5 0 0 0 .3 1.6l.7 1.5.8 1.2.3.5a.9.9 0 0 1-.4.8l-1 .4-1.3.3h-4.4a2.3 2.3 0 0 1-1-.4 1.6 1.6 0 0 1-.7-.9 9.1 9.1 0 0 1-.6-1.6c-.2-.6-.3-1.1-.5-1.6a5.1 5.1 0 0 1-.3-1.7 5.6 5.6 0 0 1 .4-1.5l1-1.6 1-1.5a4.4 4.4 0 0 0 .8-1.5c.9-1.9 1.7-3.9 2.5-5.9s1.6-3.9 2.5-5.9a2.5 2.5 0 0 1 .4-.7l.6-.7.4-.8a1.9 1.9 0 0 0 .2-.8c0-.4-.1-.6-.4-.6h-1.2l-9 2.4a3.2 3.2 0 0 1-1.3.5l-1.8.4-1.6.6a1.2 1.2 0 0 0-.7 1.1 1.6 1.6 0 0 0 .3.9l.7.6.8.6a1.3 1.3 0 0 1 .7.6l-.4.4-1.2-.8-1.5-.9-1.5-.6-1.5-.2a17.3 17.3 0 0 0-3.8.5l-3.9 1.1c-1.3.5-2.7.8-4.1 1.2a20.1 20.1 0 0 1-4.2.5 18.5 18.5 0 0 1-3.5-.4l-4.9-1.1-5.4-1.8a46.8 46.8 0 0 1-5-2.2 15.3 15.3 0 0 1-3.6-2.7 4.1 4.1 0 0 1-1.5-3 4.4 4.4 0 0 1 1.1-3.2 7.3 7.3 0 0 1 2.8-1.7 13.4 13.4 0 0 1 3.5-.1 31.1 31.1 0 0 1 3.3.3h4a2.7 2.7 0 0 1 1.3-.2h2.3l2.5.3 2 .3 2 .5 1.7.9 1.9.7a6.5 6.5 0 0 0 2 .4 8.6 8.6 0 0 0 3.9-1.1 31.9 31.9 0 0 0 4.2-2.6l3.9-3.1 3.2-2.7a10 10 0 0 1 1.9-1.2l1.8-1.1 1.8-1.3a8.6 8.6 0 0 0 1.5-1.7 48.3 48.3 0 0 0 2.6-4.5 22.7 22.7 0 0 1 2.7-4.4 4 4 0 0 1 1.3-1.3l1.5-1 1.6-.9 1.7-.9 3.6-2.6 3.4-3c1.1-.9 2.3-1.9 3.4-3l3.4-2.8a17.9 17.9 0 0 1 3.8-2.2l3.9-1.9 2.5-1.3 2.5-1.3 2.5-1.1a9 9 0 0 1 2.7-.7L163 117a11.8 11.8 0 0 0 3.5-1.1 23.7 23.7 0 0 0 3.3-2.2 28.9 28.9 0 0 0 3.2-2.9l2.9-3.3a38.2 38.2 0 0 0 2.7-3.2l2.3-2.8 7.7-8.9.3-.3.6-.6.5-.5.3-.2 2-3.3.3-.2.3-.2.4-.2.2-.2c.1-.1.3-.2.4-.4a1.2 1.2 0 0 1 .4-.4l1.3-1.7 1.3-2 1.3-2a10.6 10.6 0 0 0 1-1.7l.9-2a17.2 17.2 0 0 1 .7-2.1c.2-.8.5-1.5.7-2.2s1-1.5 1-2.2v-6.1a5.3 5.3 0 0 0-1.1-3.1 10.7 10.7 0 0 0-2.6-2.6 11.1 11.1 0 0 0-3.4-1.8 7.7 7.7 0 0 0-3.2-.7 22.5 22.5 0 0 0-5.8.7 12.4 12.4 0 0 0-5.1 2.6l-1.4 1.4-1.6 1.9-1.8 2-1.8 1.9-1.9 1.3a3.4 3.4 0 0 1-1.7.5 1.7 1.7 0 0 1-1.2-.5 1.6 1.6 0 0 1-.5-1.1v-.5a1 1 0 0 0 .1-.4c.1-.3.1-.5.2-.8s.1-.5.1-.8a1 1 0 0 0 .1-.4 4.3 4.3 0 0 0-.3-1.7 5.8 5.8 0 0 0-.5-1.4 3.4 3.4 0 0 1-.6-1.2 2.7 2.7 0 0 1-.3-1.2 1.2 1.2 0 0 0 .9-.3l.4-.6c.1-.3.3-.5.4-.8l.8-.5c0-.1.2-.1.6-.1h2.3a1 1 0 0 0 .9-.4l.7-.6a.1.1 0 0 1 .2 0h.2a.5.5 0 0 1 .2.4c.1.2.2.3.2.4a.8.8 0 0 1 .4-.4l.7-.3 1.1-.7 1.3-.8 1.4-.8 1.1-.6.5-.4a13.5 13.5 0 0 1 2.1-1.3 6.4 6.4 0 0 1 1.8-.6 5.8 5.8 0 0 1 1.9-.2h6.5a3.4 3.4 0 0 0 1.4.5l1.6.4 1.5.3a4.9 4.9 0 0 1 1.6.5 13.7 13.7 0 0 1 4.5 3 14.6 14.6 0 0 1 3.2 4.2 19.6 19.6 0 0 1 1.7 5 25 25 0 0 1 .5 5.5v2.3z"/><path d="M59.1 167a32.5 32.5 0 0 0-7.7.9c0 .3.3.6.8 1a12.3 12.3 0 0 0 2 1l2.6 1 2.8.8 2.4.6 1.5.3h2.1a10.1 10.1 0 0 0 2.5-.5l2.4-.8a5 5 0 0 0 1.7-1.5 28.5 28.5 0 0 0-6.4-2.2 29.9 29.9 0 0 0-6.7-.6z"/><path d="M128 1a127 127 0 1 0 127 127A127.1 127.1 0 0 0 128 1zm82.8 70.1v.3a8.8 8.8 0 0 1-.1 1.4l-.3 2.1a15.5 15.5 0 0 1-.4 2.1 9 9 0 0 1-.2 1.3 6.6 6.6 0 0 0-.9 1.9l-.6 1.9-.6 2c-.2.7-.5 1.3-.7 2s-1.1 2.1-1.7 3a30.1 30.1 0 0 0-1.6 3.1l-20 27.7a.8.8 0 0 1-.2.5l-.3.3-.3.3-.4.5-1.6 2.2-2.1 2.9-2.2 3.2a27.9 27.9 0 0 0-1.9 3.3 13.5 13.5 0 0 0-1.4 3 5.6 5.6 0 0 0-.6 2.3c0 .3-.2.5-.2.7s.2.4.2.7c-.1 0-.2.2-.2.4s.1.4.2.4v10.2a4.4 4.4 0 0 1-.2 1c-.2.3-.2.7-.4 1.1s-.5.8-.6 1.2a5.6 5.6 0 0 0-.4 1.2v1.6c0 .1.1.2-.1.4a3 3 0 0 1-.4.8c-.1.3-.5.6-.7.8s-.5.4-.5.4v.4c0 .1.7.3.8.5s.9.3.9.4v.5a2.7 2.7 0 0 0 0 .9v1.4a19.7 19.7 0 0 1-.7 3.5c-.1 1.2-.5 2.3-.7 3.5s-.5 2.3-.7 3.5a21.6 21.6 0 0 0-.3 3.5q0 3.2.3 6.3a32.2 32.2 0 0 0 1.1 6.2 27.8 27.8 0 0 0 2.1 5.7 22.2 22.2 0 0 0 3.4 5.2 4.8 4.8 0 0 1-1.3.9 7.6 7.6 0 0 1-1.6.6l-1.8.5H169l-1-.3-1.2-.2-1-.2-.7-.2-.7-.3a1.8 1.8 0 0 1-.7-.5 2.4 2.4 0 0 1-.3-.7 26.4 26.4 0 0 0 .1-4 31.1 31.1 0 0 0-.3-4.3c-.1-1.4-.3-2.8-.5-4.3s-.4-2.7-.5-4-.1-.3-.2-.7l-.2-.6c0-1.1 0-2.3.1-3.6s0-2.7-.1-4a25.7 25.7 0 0 0-.6-4 11.7 11.7 0 0 0-1.5-3.4 3.7 3.7 0 0 0-1.4 1.8 17.3 17.3 0 0 0-.8 2.7c-.2 1-.2 1.9-.4 2.9s-.9 1.7-.9 2.3v3.8a17.6 17.6 0 0 0 0 2.3v1.5c0 2.8-.3 5.6-.1 8.3s.2 5.4.5 8.2l.4.3.8.6a2.7 2.7 0 0 1 .8.7.7.7 0 0 1 .4.6c0 .2-.3.5-.8.8l-1.9.9-2 .8-1.3.4h-.2l-4.7-2.6a.3.3 0 0 1-.2-.4v-.6a29.9 29.9 0 0 1 0-3 30.1 30.1 0 0 0 .1-3.1 25.3 25.3 0 0 0-.3-3.8l-.6-3.7-.6-3.7c-.1-1.3-.2-2.6-.2-3.9s0-2.3.1-3.3l.3-2.8.6-2.8c.2-1 .4-2 .6-3.2a.8.8 0 0 0 0-.7 2.3 2.3 0 0 1-.1-.7 5.8 5.8 0 0 0-1.9.2l-1.9.5-1.9.6-1.9.5-1.4.2-1 .2-1-.2h-2.9a44.2 44.2 0 0 1-5.2-.1H121a4.1 4.1 0 0 0-2.4.8 45.1 45.1 0 0 1 0 5.2c0 1.7-.1 3.4-.1 5.1l-.3 5.1c0 1.7-.1 3.5-.1 5.2v1a7.5 7.5 0 0 0 0 1.5v2.6c0 .5.6 1.1 1.1 1.7l1.4 1.7 1.2 1.7a4.1 4.1 0 0 1 .5 1.8v.4a9.4 9.4 0 0 1-4.1.4c.1.5 0 .7-.2.8h-2.7l-2.3-.2a5.1 5.1 0 0 1-1.8-.9 2.2 2.2 0 0 1-.8-1.8 5.1 5.1 0 0 1 .2-1.3l.3-1.3.3-1.3a6.6 6.6 0 0 0 .1-1.4c0-1.3-.1-2.6-.2-3.9s-.4-2.4-.7-3.5-.5-2.7-.8-3.9a18.3 18.3 0 0 1-.7-3.9h-.5c-.2 0-.3.7-.5.9a2.5 2.5 0 0 1-.4.7l-.3.5-1.6 2.3-1.4 2.2a18.9 18.9 0 0 0-1.1 2.5 7.7 7.7 0 0 0-.4 2.7 4.5 4.5 0 0 0 .3 1.6l.7 1.5.8 1.2.3.5a.9.9 0 0 1-.4.8l-1 .4-1.3.3h-4.4a2.3 2.3 0 0 1-1-.4 1.6 1.6 0 0 1-.7-.9 9.1 9.1 0 0 1-.6-1.6c-.2-.6-.3-1.1-.5-1.6a5.1 5.1 0 0 1-.3-1.7 5.6 5.6 0 0 1 .4-1.5l1-1.6 1-1.5a4.4 4.4 0 0 0 .8-1.5c.9-1.9 1.7-3.9 2.5-5.9s1.6-3.9 2.5-5.9a2.5 2.5 0 0 1 .4-.7l.6-.7.4-.8a1.9 1.9 0 0 0 .2-.8c0-.4-.1-.6-.4-.6h-1.2l-9 2.4a3.2 3.2 0 0 1-1.3.5l-1.8.4-1.6.6a1.2 1.2 0 0 0-.7 1.1 1.6 1.6 0 0 0 .3.9l.7.6.8.6a1.3 1.3 0 0 1 .7.6l-.4.4-1.2-.8-1.5-.9-1.5-.6-1.5-.2a17.3 17.3 0 0 0-3.8.5l-3.9 1.1c-1.3.5-2.7.8-4.1 1.2a20.1 20.1 0 0 1-4.2.5 18.5 18.5 0 0 1-3.5-.4l-4.9-1.1-5.4-1.8a46.8 46.8 0 0 1-5-2.2 15.3 15.3 0 0 1-3.6-2.7 4.1 4.1 0 0 1-1.5-3 4.4 4.4 0 0 1 1.1-3.2 7.3 7.3 0 0 1 2.8-1.7 13.4 13.4 0 0 1 3.5-.1 31.1 31.1 0 0 1 3.3.3h4a2.7 2.7 0 0 1 1.3-.2h2.3l2.5.3 2 .3 2 .5 1.7.9 1.9.7a6.5 6.5 0 0 0 2 .4 8.6 8.6 0 0 0 3.9-1.1 31.9 31.9 0 0 0 4.2-2.6l3.9-3.1 3.2-2.7a10 10 0 0 1 1.9-1.2l1.8-1.1 1.8-1.3a8.6 8.6 0 0 0 1.5-1.7 48.3 48.3 0 0 0 2.6-4.5 22.7 22.7 0 0 1 2.7-4.4 4 4 0 0 1 1.3-1.3l1.5-1 1.6-.9 1.7-.9 3.6-2.6 3.4-3c1.1-.9 2.3-1.9 3.4-3l3.4-2.8a17.9 17.9 0 0 1 3.8-2.2l3.9-1.9 2.5-1.3 2.5-1.3 2.5-1.1a9 9 0 0 1 2.7-.7L163 117a11.8 11.8 0 0 0 3.5-1.1 23.7 23.7 0 0 0 3.3-2.2 28.9 28.9 0 0 0 3.2-2.9l2.9-3.3a38.2 38.2 0 0 0 2.7-3.2l2.3-2.8 7.7-8.9.3-.3.6-.6.5-.5.3-.2 2-3.3.3-.2.3-.2.4-.2.2-.2c.1-.1.3-.2.4-.4a1.2 1.2 0 0 1 .4-.4l1.3-1.7 1.3-2 1.3-2a10.6 10.6 0 0 0 1-1.7l.9-2a17.2 17.2 0 0 1 .7-2.1c.2-.8.5-1.5.7-2.2s1-1.5 1-2.2v-6.1a5.3 5.3 0 0 0-1.1-3.1 10.7 10.7 0 0 0-2.6-2.6 11.1 11.1 0 0 0-3.4-1.8 7.7 7.7 0 0 0-3.2-.7 22.5 22.5 0 0 0-5.8.7 12.4 12.4 0 0 0-5.1 2.6l-1.4 1.4-1.6 1.9-1.8 2-1.8 1.9-1.9 1.3a3.4 3.4 0 0 1-1.7.5 1.7 1.7 0 0 1-1.2-.5 1.6 1.6 0 0 1-.5-1.1v-.5a1 1 0 0 0 .1-.4c.1-.3.1-.5.2-.8s.1-.5.1-.8a1 1 0 0 0 .1-.4 4.3 4.3 0 0 0-.3-1.7 5.8 5.8 0 0 0-.5-1.4 3.4 3.4 0 0 1-.6-1.2 2.7 2.7 0 0 1-.3-1.2 1.2 1.2 0 0 0 .9-.3l.4-.6c.1-.3.3-.5.4-.8l.8-.5c0-.1.2-.1.6-.1h2.3a1 1 0 0 0 .9-.4l.7-.6a.1.1 0 0 1 .2 0h.2a.5.5 0 0 1 .2.4c.1.2.2.3.2.4a.8.8 0 0 1 .4-.4l.7-.3 1.1-.7 1.3-.8 1.4-.8 1.1-.6.5-.4a13.5 13.5 0 0 1 2.1-1.3 6.4 6.4 0 0 1 1.8-.6 5.8 5.8 0 0 1 1.9-.2h6.5a3.4 3.4 0 0 0 1.4.5l1.6.4 1.5.3a4.9 4.9 0 0 1 1.6.5 13.7 13.7 0 0 1 4.5 3 14.6 14.6 0 0 1 3.2 4.2 19.6 19.6 0 0 1 1.7 5 25 25 0 0 1 .5 5.5v2.3z"/></symbol><symbol id="micropachycephalosaurus" viewBox="0 0 256 256"><path fill="#0056cb" d="M132.6 152.1c-.2 0-.4.2-.4.6h-.1c-.3 0-.4.2-.4.5s.1.6.4.6.5-.2.5-.6c.4 0 .5-.1.5-.5s-.1-.6-.5-.6zm1.5-.8a2.4 2.4 0 0 0-.9.8h.3a2 2 0 0 0 1.1-.3 2.4 2.4 0 0 0 .9-.8h-.3a2.3 2.3 0 0 0-1.1.3zm3-2.5c-.2 0-.4.1-.4.5h-.1c-.3 0-.4.2-.4.6h-.2c-.3 0-.4.2-.4.6s.1.5.4.5a.5.5 0 0 0 .5-.5h.1c.3 0 .5-.2.5-.6a.5.5 0 0 0 .6-.6c0-.4-.2-.5-.6-.5zm23.2-5.9a17.4 17.4 0 0 1-1.2 1.4 1.7 1.7 0 0 0 .8 1l1.1.2a1.9 1.9 0 0 0 1.4-.5 4.3 4.3 0 0 0 1.1-1.2 6.9 6.9 0 0 0 .7-1.5c.3-.5.4-1.1.5-1.1h-3.4c-.2 0-.5 1-1 1.7z"/><path fill="#0056cb" d="M128.1 2a127 127 0 1 0 127 127 127.1 127.1 0 0 0-127-127zm95.2 75.4a3.7 3.7 0 0 1-1.5.3h-3.7l-5.2 1.2a18.6 18.6 0 0 0-3.7 1.6 10.7 10.7 0 0 0-2.5 2.2 15.8 15.8 0 0 0-1.7 2.9c-.5 1.1-1 2.5-1.5 3.9l-1.7 5.1-1.2 3.4-1.2 3.2a22 22 0 0 1-1.5 3.1c-.5 1.1-1.1 2.1-1.7 3.3a28 28 0 0 1-2.7 4c-.9 1.3-1.9 2.5-2.9 3.7l-3.1 3.5a40.8 40.8 0 0 0-3.1 3.9 8.3 8.3 0 0 0-1.4 2.6 20 20 0 0 1-1 2.6 9.8 9.8 0 0 1-1.3 2.2 5.7 5.7 0 0 1-2.5 1.6l-1.3.5-2.1.7-2 .7-1.4.3a2.7 2.7 0 0 1 .2 2.1 2 2 0 0 1-.9.9l-1.2.6a2 2 0 0 0-.9.9l-2.2 6.8a2.7 2.7 0 0 1-1.1 1.5 5.3 5.3 0 0 1-1.7.8 13.6 13.6 0 0 1-2 .2 10.9 10.9 0 0 1-1.9-.1h-.8c-.5 0-.9.2-1.2 0a.8.8 0 0 1-.4-.8c0-.2.1-.3.1-.4l.3-.3.2-.3a.4.4 0 0 0 .1-.3v-.2a27.2 27.2 0 0 0-3.5 1.6l-3.3 2.1-3.3 2.1-3.4 2-.9.5-1.1.5-1 .8a1.6 1.6 0 0 0-.5 1.1v.5l1.8 1.7 1.9 1.7 2.1 1.6 2.1 1.2a7.5 7.5 0 0 0 1.8.7l1.9.5 1.9.7a5.6 5.6 0 0 1 1.7.9 8.6 8.6 0 0 1 1.3 1.4l1.1 1.5 1.1 1.5a6.1 6.1 0 0 0 1.5 1.2 3.8 3.8 0 0 0 1.7.6l2.1.7a8.1 8.1 0 0 1 1.8 1 2.1 2.1 0 0 1 .7 1.7.8.8 0 0 1-.1.3v.2l-5.6 1.2a3.5 3.5 0 0 0-1.1.3 2.1 2.1 0 0 1-1.2.3h-.5l-1.2-.7-1.7-1-1.7-1-1-.7c-.1 0-.1-.1-.2-.3l-.3-.5-.4-.5-.2-.4-2.3-4.6-1.1-.4-1.8-.7-2.2-1-2.1-.9-1.8-.9-1.1-.6-2.8-1.5a17.8 17.8 0 0 1-2.6-2.2 10.5 10.5 0 0 1-2-2.7 8.2 8.2 0 0 1-1.1-3.1l-.5.2-.6.4-.9.6a8.3 8.3 0 0 1-1.7 1.2l-2.1 1.4-2.1 1.4-1.8 1-.9.6-6 3.5a23.1 23.1 0 0 0-4.5 3.4 18.2 18.2 0 0 0-3.7 4.5c-.8 1.7-.7 3.9-2.3 6.6v.6c-.1.2 0 .3 0 .5v.4a10.6 10.6 0 0 0 1.1 4.5 7.5 7.5 0 0 0 2.1 2.5 7 7 0 0 0 2.7 1.4l2.5 1a7.5 7.5 0 0 1 2 1 5.3 5.3 0 0 1 .8 2h-13.2l-.2-.4c-.1-.2-.2-.1-.4-.2h-.5l-.6-.4a2.3 2.3 0 0 1-1.2-1.5 7.9 7.9 0 0 1-.5-2.2 19.5 19.5 0 0 1 .2-2.3c0-.8.3-1.4.3-2v-1.5a4.3 4.3 0 0 1 .3-1.7c.2-.9.3-1.8.5-2.7s.5-2.1.8-3.2.6-2.1.8-3.1.5-1.9.7-2.7l.4-1.8a11.8 11.8 0 0 1 .7-2 10.7 10.7 0 0 1 .9-1.9 13.6 13.6 0 0 0 4.5-2.5l3.3-3.3 2.9-3.4a14.5 14.5 0 0 1 3.4-3.1 4.2 4.2 0 0 1 1.5-.7l2-.8 2.3-1 2.2-1.1 1.6-1.3a2.5 2.5 0 0 0 .6-1.6v-1.3a2.5 2.5 0 0 0-.7-1.2l-.7-.3-1.2-.6-1.2-.5-.8-.3a7.3 7.3 0 0 1-2-1.3l-2.7-1.8a25.6 25.6 0 0 0-2.5-1.6 3.4 3.4 0 0 0-1.7-.6h-7.9c-6 0-11.9-.1-17.7.1s-11.6.2-17.6.2q-6.6 0-12.9-.3a102.3 102.3 0 0 1-12.4-1.4 104.6 104.6 0 0 1-12-2.9 74.2 74.2 0 0 1-11.7-5.1l-1.5-.7-1.6-1a4.9 4.9 0 0 1-1.2-1.3 2.5 2.5 0 0 1-.6-1.6 9.5 9.5 0 0 1 2.1.4l2.4 1 2.2.9 1.5.7 4.7 1.6a41.3 41.3 0 0 0 5 1.5l5.2 1 4.8.3h26.5l2.6-.4 3.3-.5 3.7-.6 3.4-.6 2.7-.6 6.8-1.3 7.4-1.6c2.5-.6 4.9-1.3 7.3-2.1a65.4 65.4 0 0 0 6.6-2.8l3.8-1.8 3.8-1.6 3.9-1.3 4.2-.9 1-.2h3.6l1-.2 1.9-.3 3.4-.8 4-.9 4.1-.9c1.2-.3 2.3-.9 3.3-1.1s1.6-.7 1.9-.7h6.5c2.7 0 5.4.5 7.9.7s5.2.5 7.9.5a11.1 11.1 0 0 0 5-1.2 21 21 0 0 0 4.5-3.5 39.2 39.2 0 0 0 3.9-5 64.8 64.8 0 0 0 3.3-5.7c.9-1.9 1.8-3.7 2.5-5.5l1.8-4.8c.4-1.2.8-2.4 1.1-3.5s.7-2.2 1-3.1a12.6 12.6 0 0 1 1.2-2.6 7 7 0 0 1 1.8-2 7.6 7.6 0 0 1 2.6-1.6 12.7 12.7 0 0 1 3.8-.8h3.1c.7 1.6 1.7.9 2.9 1.3s2.4 1 3.6 1.5a21.6 21.6 0 0 1 3 1.8 2.9 2.9 0 0 1 1.2 2.2 2 2 0 0 1-.4 1.4 2.7 2.7 0 0 1-1.2.6z"/><path d="M132.6 152.1c-.2 0-.4.2-.4.6h-.1c-.3 0-.4.2-.4.5s.1.6.4.6.5-.2.5-.6c.4 0 .5-.1.5-.5s-.1-.6-.5-.6zm1.5-.8a2.4 2.4 0 0 0-.9.8h.3a2 2 0 0 0 1.1-.3 2.4 2.4 0 0 0 .9-.8h-.3a2.3 2.3 0 0 0-1.1.3zm3-2.5c-.2 0-.4.1-.4.5h-.1c-.3 0-.4.2-.4.6h-.2c-.3 0-.4.2-.4.6s.1.5.4.5a.5.5 0 0 0 .5-.5h.1c.3 0 .5-.2.5-.6a.5.5 0 0 0 .6-.6c0-.4-.2-.5-.6-.5zm23.2-5.9a17.4 17.4 0 0 1-1.2 1.4 1.7 1.7 0 0 0 .8 1l1.1.2a1.9 1.9 0 0 0 1.4-.5 4.3 4.3 0 0 0 1.1-1.2 6.9 6.9 0 0 0 .7-1.5c.3-.5.4-1.1.5-1.1h-3.4c-.2 0-.5 1-1 1.7z"/><path d="M128.1 2a127 127 0 1 0 127 127 127.1 127.1 0 0 0-127-127zm95.2 75.4a3.7 3.7 0 0 1-1.5.3h-3.7l-5.2 1.2a18.6 18.6 0 0 0-3.7 1.6 10.7 10.7 0 0 0-2.5 2.2 15.8 15.8 0 0 0-1.7 2.9c-.5 1.1-1 2.5-1.5 3.9l-1.7 5.1-1.2 3.4-1.2 3.2a22 22 0 0 1-1.5 3.1c-.5 1.1-1.1 2.1-1.7 3.3a28 28 0 0 1-2.7 4c-.9 1.3-1.9 2.5-2.9 3.7l-3.1 3.5a40.8 40.8 0 0 0-3.1 3.9 8.3 8.3 0 0 0-1.4 2.6 20 20 0 0 1-1 2.6 9.8 9.8 0 0 1-1.3 2.2 5.7 5.7 0 0 1-2.5 1.6l-1.3.5-2.1.7-2 .7-1.4.3a2.7 2.7 0 0 1 .2 2.1 2 2 0 0 1-.9.9l-1.2.6a2 2 0 0 0-.9.9l-2.2 6.8a2.7 2.7 0 0 1-1.1 1.5 5.3 5.3 0 0 1-1.7.8 13.6 13.6 0 0 1-2 .2 10.9 10.9 0 0 1-1.9-.1h-.8c-.5 0-.9.2-1.2 0a.8.8 0 0 1-.4-.8c0-.2.1-.3.1-.4l.3-.3.2-.3a.4.4 0 0 0 .1-.3v-.2a27.2 27.2 0 0 0-3.5 1.6l-3.3 2.1-3.3 2.1-3.4 2-.9.5-1.1.5-1 .8a1.6 1.6 0 0 0-.5 1.1v.5l1.8 1.7 1.9 1.7 2.1 1.6 2.1 1.2a7.5 7.5 0 0 0 1.8.7l1.9.5 1.9.7a5.6 5.6 0 0 1 1.7.9 8.6 8.6 0 0 1 1.3 1.4l1.1 1.5 1.1 1.5a6.1 6.1 0 0 0 1.5 1.2 3.8 3.8 0 0 0 1.7.6l2.1.7a8.1 8.1 0 0 1 1.8 1 2.1 2.1 0 0 1 .7 1.7.8.8 0 0 1-.1.3v.2l-5.6 1.2a3.5 3.5 0 0 0-1.1.3 2.1 2.1 0 0 1-1.2.3h-.5l-1.2-.7-1.7-1-1.7-1-1-.7c-.1 0-.1-.1-.2-.3l-.3-.5-.4-.5-.2-.4-2.3-4.6-1.1-.4-1.8-.7-2.2-1-2.1-.9-1.8-.9-1.1-.6-2.8-1.5a17.8 17.8 0 0 1-2.6-2.2 10.5 10.5 0 0 1-2-2.7 8.2 8.2 0 0 1-1.1-3.1l-.5.2-.6.4-.9.6a8.3 8.3 0 0 1-1.7 1.2l-2.1 1.4-2.1 1.4-1.8 1-.9.6-6 3.5a23.1 23.1 0 0 0-4.5 3.4 18.2 18.2 0 0 0-3.7 4.5c-.8 1.7-.7 3.9-2.3 6.6v.6c-.1.2 0 .3 0 .5v.4a10.6 10.6 0 0 0 1.1 4.5 7.5 7.5 0 0 0 2.1 2.5 7 7 0 0 0 2.7 1.4l2.5 1a7.5 7.5 0 0 1 2 1 5.3 5.3 0 0 1 .8 2h-13.2l-.2-.4c-.1-.2-.2-.1-.4-.2h-.5l-.6-.4a2.3 2.3 0 0 1-1.2-1.5 7.9 7.9 0 0 1-.5-2.2 19.5 19.5 0 0 1 .2-2.3c0-.8.3-1.4.3-2v-1.5a4.3 4.3 0 0 1 .3-1.7c.2-.9.3-1.8.5-2.7s.5-2.1.8-3.2.6-2.1.8-3.1.5-1.9.7-2.7l.4-1.8a11.8 11.8 0 0 1 .7-2 10.7 10.7 0 0 1 .9-1.9 13.6 13.6 0 0 0 4.5-2.5l3.3-3.3 2.9-3.4a14.5 14.5 0 0 1 3.4-3.1 4.2 4.2 0 0 1 1.5-.7l2-.8 2.3-1 2.2-1.1 1.6-1.3a2.5 2.5 0 0 0 .6-1.6v-1.3a2.5 2.5 0 0 0-.7-1.2l-.7-.3-1.2-.6-1.2-.5-.8-.3a7.3 7.3 0 0 1-2-1.3l-2.7-1.8a25.6 25.6 0 0 0-2.5-1.6 3.4 3.4 0 0 0-1.7-.6h-7.9c-6 0-11.9-.1-17.7.1s-11.6.2-17.6.2q-6.6 0-12.9-.3a102.3 102.3 0 0 1-12.4-1.4 104.6 104.6 0 0 1-12-2.9 74.2 74.2 0 0 1-11.7-5.1l-1.5-.7-1.6-1a4.9 4.9 0 0 1-1.2-1.3 2.5 2.5 0 0 1-.6-1.6 9.5 9.5 0 0 1 2.1.4l2.4 1 2.2.9 1.5.7 4.7 1.6a41.3 41.3 0 0 0 5 1.5l5.2 1 4.8.3h26.5l2.6-.4 3.3-.5 3.7-.6 3.4-.6 2.7-.6 6.8-1.3 7.4-1.6c2.5-.6 4.9-1.3 7.3-2.1a65.4 65.4 0 0 0 6.6-2.8l3.8-1.8 3.8-1.6 3.9-1.3 4.2-.9 1-.2h3.6l1-.2 1.9-.3 3.4-.8 4-.9 4.1-.9c1.2-.3 2.3-.9 3.3-1.1s1.6-.7 1.9-.7h6.5c2.7 0 5.4.5 7.9.7s5.2.5 7.9.5a11.1 11.1 0 0 0 5-1.2 21 21 0 0 0 4.5-3.5 39.2 39.2 0 0 0 3.9-5 64.8 64.8 0 0 0 3.3-5.7c.9-1.9 1.8-3.7 2.5-5.5l1.8-4.8c.4-1.2.8-2.4 1.1-3.5s.7-2.2 1-3.1a12.6 12.6 0 0 1 1.2-2.6 7 7 0 0 1 1.8-2 7.6 7.6 0 0 1 2.6-1.6 12.7 12.7 0 0 1 3.8-.8h3.1c.7 1.6 1.7.9 2.9 1.3s2.4 1 3.6 1.5a21.6 21.6 0 0 1 3 1.8 2.9 2.9 0 0 1 1.2 2.2 2 2 0 0 1-.4 1.4 2.7 2.7 0 0 1-1.2.6z"/></symbol><symbol id="velociraptor" viewBox="0 0 256 256"><path fill="#0056cb" d="M128 1a127 127 0 1 0 127 127A127.1 127.1 0 0 0 128 1zm109.8 115.9h-7.3c-3.1 0-6.1-.2-9.2-.5l-9.1-1-9-.9c-3.1-.3-6.1-.5-9.2-.5a150.1 150.1 0 0 0-16.3 1 77.2 77.2 0 0 0-15.8 3.7l-30.5 11a2.7 2.7 0 0 0-1.2 1.6 17.3 17.3 0 0 0-.8 2.7l-.6 2.9a8.5 8.5 0 0 1-.6 1.9 3.2 3.2 0 0 0 1.3 1.3l2.5 1.2 2.9 1.2a17.1 17.1 0 0 1 2.7 1.4 7.8 7.8 0 0 1 2.1 1.9 3.5 3.5 0 0 1 .8 2.4 1.7 1.7 0 0 1-.5 1.3 3.6 3.6 0 0 1-1.2.8l-1.6.8-1.6.8a4 4 0 0 0-1.2 1 2.5 2.5 0 0 0-.5 1.5 3.7 3.7 0 0 0 .8 2.5 7.4 7.4 0 0 0 1.9 1.6l2.4 1.3a9.2 9.2 0 0 1 2.2 1.8 23.3 23.3 0 0 1 2 3.4c.5 1.2.9 2.4 1.3 3.7s.5 2.5.7 3.8.1 2.7.3 4l1.3 1.3v7.1h.8l1.1.2.9.2.6.3a3.2 3.2 0 0 1 .1.8c0 .2-.1.6-.1 1a5.6 5.6 0 0 1-.4 1.2c-.1.4-.4.6-.6.9a1.1 1.1 0 0 1-.9.4h-5.2c-.2 0-.5-.6-1-.9l-1.5-.8-1.5-.8c-.5-.3-.9-.9-1.2-.9h-6.1a5 5 0 0 1 .6-2.9 5.2 5.2 0 0 1 1.7-1.6 6.5 6.5 0 0 1 2.1-.6l2.1-.4a3.4 3.4 0 0 0 1.6-.6 1.3 1.3 0 0 0 .7-1.3v-.4a.4.4 0 0 1-.1-.3c-.2-.4-.4-1-.8-1.7l-1.3-2.5-1.5-2.4a10 10 0 0 0-1.6-1.8l-1.3-.8-1.8-1-1.8-1a2.2 2.2 0 0 1-.9-1.1 16.3 16.3 0 0 1-1-2.9 15.9 15.9 0 0 0-1-3.3 9.4 9.4 0 0 0-1.8-2.5 3.8 3.8 0 0 0-2.8-1.1 24.9 24.9 0 0 0-6.1.8 28 28 0 0 0-5.7 2.2 29.8 29.8 0 0 0-5 3.5 24.4 24.4 0 0 0-3.9 4.6l-.3.2h-.3a.5.5 0 0 1-.2-.4c-.1-.1-.1-.4-.2-.6a1.4 1.4 0 0 0-.2-.6.4.4 0 0 0-.1-.3h-.3a1.2 1.2 0 0 0-1 .5 4.8 4.8 0 0 0-.9 1.1l-.9 1.4a3.9 3.9 0 0 1-.8 1 3.5 3.5 0 0 1-.6-1.7 7.6 7.6 0 0 1-.1-1.6 9.2 9.2 0 0 1 .4-2.9 15.2 15.2 0 0 1 .9-2.8c.3-1 .6-1.6.9-2.6s.4-2.7.4-2.7H94c0-1.7.2-1.8.7-2.4a4.9 4.9 0 0 1 1.6-1.6 6.7 6.7 0 0 1 2.1-.9l2.1-.3 3 .2 3 .5 2.8.4a15.1 15.1 0 0 0 3 .2h2.3a2.6 2.6 0 0 0-1.7-1.4l-2.6-.4-2.7-.2c-.8-.1-1.6.1-2.1-.2l-3.9-2.2h-.3a11.4 11.4 0 0 0-3.2 0 15.8 15.8 0 0 1-3.1.1 7.3 7.3 0 0 1-3-.7l-2.7-1.4-2.6-1.3a5 5 0 0 0-2.9-.6v6h1.6a2.3 2.3 0 0 0 1-.4l.9-.5a3.5 3.5 0 0 1 .9-.6l.6-.2v2.8l2-.7c0 .1.2.3.2.5l.2.5a5.6 5.6 0 0 1-1.4 3.9 18.2 18.2 0 0 1-3.2 2.9 29.2 29.2 0 0 0-4.6-1.3l-4.8-.6v-7.8l-1.7.5-2.1 1-1.9.8c-.4.4-.9.8-.9 1.2v6.9a9.6 9.6 0 0 0 3-.3l1.8-.6 1.2-.6 1.2-.3h.4l.3.7c.1.4.3.8.4 1.2a9.3 9.3 0 0 1 .4 1.3 8.4 8.4 0 0 1 .2 1 4.6 4.6 0 0 1-.4 1.9 5.4 5.4 0 0 1-1.1 1.8 5 5 0 0 1-1.5 1.4 4.1 4.1 0 0 1-1.8.5h-1.1l-3-.5-3.6-.7a9.3 9.3 0 0 1-3.2-1.3 2.5 2.5 0 0 1-1.5-2v-11.7l.9-.8 1.9-1.7 2.4-2.1a28.5 28.5 0 0 0 2.3-2.6 11 11 0 0 0 1.8-2.6 5.6 5.6 0 0 0 .8-2.6 3.9 3.9 0 0 0-1.2-2.8 15.5 15.5 0 0 0-2.8-2l-3.2-1.4-2.6-.9-1.3-9.1a16.8 16.8 0 0 0-.6-2.7 10.9 10.9 0 0 0-1.1-2.7 7.9 7.9 0 0 0-1.8-2.2 3.9 3.9 0 0 0-2.6-.9 13.8 13.8 0 0 0-3.7.5 15 15 0 0 0-3.2 1.5 6.4 6.4 0 0 1-1.6 1l-2.5 1.5-3 1.8-3 1.7-2.5 1.7c-.8.4-1.3 1.1-1.6 1.1H33l-1.7-.2-2-.4a4.7 4.7 0 0 1-1.4-.8c-.5-.3-.4-.8-.4-1.3V119c0-.6-.2-.9.1-.9h1.5v-.4c.1-.2.1-.5.2-.8s.1-.6.2-.9v-.5a3 3 0 0 0-.8-.8l-.9-.5-.7-.6a2.3 2.3 0 0 1-.3-1.3 3.5 3.5 0 0 1 .3-1.2 4.1 4.1 0 0 1 .7-1.1c.2-.4.2-.7.6-.9l.8-.3v.8c0 .4.4.9.6 1.4a1.1 1.1 0 0 0 1.2.8 1.6 1.6 0 0 0 1-.5 4 4 0 0 0 1-1.2 4.4 4.4 0 0 0 .6-1.6c.2-.4.3.3.3-1.4H21.7l-.9-.4-1-.7a3.6 3.6 0 0 1-.9-.8 1.3 1.3 0 0 1-.4-1 4.6 4.6 0 0 1 1-3.2 7.6 7.6 0 0 1 2.6-1.8 19.7 19.7 0 0 1 3.2-1l2.9-.8 2.2-1 3.3-1.5 3.4-1.6c1-.5 1.7-1.1 2.2-1.1h13.6a7 7 0 0 1 3.8 1 12.6 12.6 0 0 1 3.1 2.5 41.9 41.9 0 0 1 2.6 3.3 27.5 27.5 0 0 0 2.3 3.3 14.9 14.9 0 0 0 2.2 2.6 4.2 4.2 0 0 0 2.5 1 .8.8 0 0 0 .8-.4c.1-.3.4-.4.8-.4a4 4 0 0 1 1.5.3l1.6.7 1.5.7a4 4 0 0 0 1.5.3 27.5 27.5 0 0 0 4.1-.2l4.1-.4 4.1-.5 4.2-.2a55.8 55.8 0 0 1 7.2.4 39.5 39.5 0 0 1 7.3 1.5l5 2 5.1 2.2a53.4 53.4 0 0 0 5.2 1.8 25.1 25.1 0 0 0 5.5.7h2.5l12.9-2.7c4.3-.8 8.5-1.6 12.8-2.2s8.6-1.2 12.9-1.6 8.7-.6 13.1-.6h8.8a32.9 32.9 0 0 1 5.1 1l36.3 7.2H245c-.8 0-1.8 1-3.1 1.4a27.5 27.5 0 0 1-4.1 0z"/><path d="M128 1a127 127 0 1 0 127 127A127.1 127.1 0 0 0 128 1zm109.8 115.9h-7.3c-3.1 0-6.1-.2-9.2-.5l-9.1-1-9-.9c-3.1-.3-6.1-.5-9.2-.5a150.1 150.1 0 0 0-16.3 1 77.2 77.2 0 0 0-15.8 3.7l-30.5 11a2.7 2.7 0 0 0-1.2 1.6 17.3 17.3 0 0 0-.8 2.7l-.6 2.9a8.5 8.5 0 0 1-.6 1.9 3.2 3.2 0 0 0 1.3 1.3l2.5 1.2 2.9 1.2a17.1 17.1 0 0 1 2.7 1.4 7.8 7.8 0 0 1 2.1 1.9 3.5 3.5 0 0 1 .8 2.4 1.7 1.7 0 0 1-.5 1.3 3.6 3.6 0 0 1-1.2.8l-1.6.8-1.6.8a4 4 0 0 0-1.2 1 2.5 2.5 0 0 0-.5 1.5 3.7 3.7 0 0 0 .8 2.5 7.4 7.4 0 0 0 1.9 1.6l2.4 1.3a9.2 9.2 0 0 1 2.2 1.8 23.3 23.3 0 0 1 2 3.4c.5 1.2.9 2.4 1.3 3.7s.5 2.5.7 3.8.1 2.7.3 4l1.3 1.3v7.1h.8l1.1.2.9.2.6.3a3.2 3.2 0 0 1 .1.8c0 .2-.1.6-.1 1a5.6 5.6 0 0 1-.4 1.2c-.1.4-.4.6-.6.9a1.1 1.1 0 0 1-.9.4h-5.2c-.2 0-.5-.6-1-.9l-1.5-.8-1.5-.8c-.5-.3-.9-.9-1.2-.9h-6.1a5 5 0 0 1 .6-2.9 5.2 5.2 0 0 1 1.7-1.6 6.5 6.5 0 0 1 2.1-.6l2.1-.4a3.4 3.4 0 0 0 1.6-.6 1.3 1.3 0 0 0 .7-1.3v-.4a.4.4 0 0 1-.1-.3c-.2-.4-.4-1-.8-1.7l-1.3-2.5-1.5-2.4a10 10 0 0 0-1.6-1.8l-1.3-.8-1.8-1-1.8-1a2.2 2.2 0 0 1-.9-1.1 16.3 16.3 0 0 1-1-2.9 15.9 15.9 0 0 0-1-3.3 9.4 9.4 0 0 0-1.8-2.5 3.8 3.8 0 0 0-2.8-1.1 24.9 24.9 0 0 0-6.1.8 28 28 0 0 0-5.7 2.2 29.8 29.8 0 0 0-5 3.5 24.4 24.4 0 0 0-3.9 4.6l-.3.2h-.3a.5.5 0 0 1-.2-.4c-.1-.1-.1-.4-.2-.6a1.4 1.4 0 0 0-.2-.6.4.4 0 0 0-.1-.3h-.3a1.2 1.2 0 0 0-1 .5 4.8 4.8 0 0 0-.9 1.1l-.9 1.4a3.9 3.9 0 0 1-.8 1 3.5 3.5 0 0 1-.6-1.7 7.6 7.6 0 0 1-.1-1.6 9.2 9.2 0 0 1 .4-2.9 15.2 15.2 0 0 1 .9-2.8c.3-1 .6-1.6.9-2.6s.4-2.7.4-2.7H94c0-1.7.2-1.8.7-2.4a4.9 4.9 0 0 1 1.6-1.6 6.7 6.7 0 0 1 2.1-.9l2.1-.3 3 .2 3 .5 2.8.4a15.1 15.1 0 0 0 3 .2h2.3a2.6 2.6 0 0 0-1.7-1.4l-2.6-.4-2.7-.2c-.8-.1-1.6.1-2.1-.2l-3.9-2.2h-.3a11.4 11.4 0 0 0-3.2 0 15.8 15.8 0 0 1-3.1.1 7.3 7.3 0 0 1-3-.7l-2.7-1.4-2.6-1.3a5 5 0 0 0-2.9-.6v6h1.6a2.3 2.3 0 0 0 1-.4l.9-.5a3.5 3.5 0 0 1 .9-.6l.6-.2v2.8l2-.7c0 .1.2.3.2.5l.2.5a5.6 5.6 0 0 1-1.4 3.9 18.2 18.2 0 0 1-3.2 2.9 29.2 29.2 0 0 0-4.6-1.3l-4.8-.6v-7.8l-1.7.5-2.1 1-1.9.8c-.4.4-.9.8-.9 1.2v6.9a9.6 9.6 0 0 0 3-.3l1.8-.6 1.2-.6 1.2-.3h.4l.3.7c.1.4.3.8.4 1.2a9.3 9.3 0 0 1 .4 1.3 8.4 8.4 0 0 1 .2 1 4.6 4.6 0 0 1-.4 1.9 5.4 5.4 0 0 1-1.1 1.8 5 5 0 0 1-1.5 1.4 4.1 4.1 0 0 1-1.8.5h-1.1l-3-.5-3.6-.7a9.3 9.3 0 0 1-3.2-1.3 2.5 2.5 0 0 1-1.5-2v-11.7l.9-.8 1.9-1.7 2.4-2.1a28.5 28.5 0 0 0 2.3-2.6 11 11 0 0 0 1.8-2.6 5.6 5.6 0 0 0 .8-2.6 3.9 3.9 0 0 0-1.2-2.8 15.5 15.5 0 0 0-2.8-2l-3.2-1.4-2.6-.9-1.3-9.1a16.8 16.8 0 0 0-.6-2.7 10.9 10.9 0 0 0-1.1-2.7 7.9 7.9 0 0 0-1.8-2.2 3.9 3.9 0 0 0-2.6-.9 13.8 13.8 0 0 0-3.7.5 15 15 0 0 0-3.2 1.5 6.4 6.4 0 0 1-1.6 1l-2.5 1.5-3 1.8-3 1.7-2.5 1.7c-.8.4-1.3 1.1-1.6 1.1H33l-1.7-.2-2-.4a4.7 4.7 0 0 1-1.4-.8c-.5-.3-.4-.8-.4-1.3V119c0-.6-.2-.9.1-.9h1.5v-.4c.1-.2.1-.5.2-.8s.1-.6.2-.9v-.5a3 3 0 0 0-.8-.8l-.9-.5-.7-.6a2.3 2.3 0 0 1-.3-1.3 3.5 3.5 0 0 1 .3-1.2 4.1 4.1 0 0 1 .7-1.1c.2-.4.2-.7.6-.9l.8-.3v.8c0 .4.4.9.6 1.4a1.1 1.1 0 0 0 1.2.8 1.6 1.6 0 0 0 1-.5 4 4 0 0 0 1-1.2 4.4 4.4 0 0 0 .6-1.6c.2-.4.3.3.3-1.4H21.7l-.9-.4-1-.7a3.6 3.6 0 0 1-.9-.8 1.3 1.3 0 0 1-.4-1 4.6 4.6 0 0 1 1-3.2 7.6 7.6 0 0 1 2.6-1.8 19.7 19.7 0 0 1 3.2-1l2.9-.8 2.2-1 3.3-1.5 3.4-1.6c1-.5 1.7-1.1 2.2-1.1h13.6a7 7 0 0 1 3.8 1 12.6 12.6 0 0 1 3.1 2.5 41.9 41.9 0 0 1 2.6 3.3 27.5 27.5 0 0 0 2.3 3.3 14.9 14.9 0 0 0 2.2 2.6 4.2 4.2 0 0 0 2.5 1 .8.8 0 0 0 .8-.4c.1-.3.4-.4.8-.4a4 4 0 0 1 1.5.3l1.6.7 1.5.7a4 4 0 0 0 1.5.3 27.5 27.5 0 0 0 4.1-.2l4.1-.4 4.1-.5 4.2-.2a55.8 55.8 0 0 1 7.2.4 39.5 39.5 0 0 1 7.3 1.5l5 2 5.1 2.2a53.4 53.4 0 0 0 5.2 1.8 25.1 25.1 0 0 0 5.5.7h2.5l12.9-2.7c4.3-.8 8.5-1.6 12.8-2.2s8.6-1.2 12.9-1.6 8.7-.6 13.1-.6h8.8a32.9 32.9 0 0 1 5.1 1l36.3 7.2H245c-.8 0-1.8 1-3.1 1.4a27.5 27.5 0 0 1-4.1 0z"/></symbol></svg>